<svg width="30" height="30" viewBox="0 0 30 30" fill="none"
  xmlns="http://www.w3.org/2000/svg">
  <rect x="1" y="1" width="28" height="28" rx="5" stroke-opacity="0.6" stroke-width="2"/>
  <path d="M16.5741 8.8581L17.7633 11.2365C17.9255 11.5676 18.3579 11.8851 18.7228 11.9459L20.8782 12.304C22.2566 12.5338 22.5809 13.5338 21.5876 14.5203L19.912 16.1959C19.6282 16.4797 19.4728 17.027 19.5606 17.4189L20.0403 19.4932C20.4187 21.1351 19.5471 21.7703 18.0944 20.9122L16.0741 19.7162C15.7093 19.5 15.1079 19.5 14.7363 19.7162L12.716 20.9122C11.2701 21.7703 10.3917 21.1284 10.7701 19.4932L11.2498 17.4189C11.3376 17.027 11.1822 16.4797 10.8984 16.1959L9.22277 14.5203C8.23629 13.5338 8.55385 12.5338 9.93223 12.304L12.0876 11.9459C12.4457 11.8851 12.8782 11.5676 13.0403 11.2365L14.2295 8.8581C14.8782 7.56756 15.9322 7.56756 16.5741 8.8581Z" stroke-opacity="0.6" stroke-linecap="round" stroke-linejoin="round"/>
</svg>
