<svg width="18" height="18" viewBox="0 0 18 18" fill="none"
  xmlns="http://www.w3.org/2000/svg">
  <path d="M3.16675 7.33335H4.83341C6.50008 7.33335 7.33341 6.50002 7.33341 4.83335V3.16669C7.33341 1.50002 6.50008 0.666687 4.83341 0.666687H3.16675C1.50008 0.666687 0.666748 1.50002 0.666748 3.16669V4.83335C0.666748 6.50002 1.50008 7.33335 3.16675 7.33335ZM13.1667 7.33335H14.8334C16.5001 7.33335 17.3334 6.50002 17.3334 4.83335V3.16669C17.3334 1.50002 16.5001 0.666687 14.8334 0.666687H13.1667C11.5001 0.666687 10.6667 1.50002 10.6667 3.16669V4.83335C10.6667 6.50002 11.5001 7.33335 13.1667 7.33335ZM13.1667 17.3334H14.8334C16.5001 17.3334 17.3334 16.5 17.3334 14.8334V13.1667C17.3334 11.5 16.5001 10.6667 14.8334 10.6667H13.1667C11.5001 10.6667 10.6667 11.5 10.6667 13.1667V14.8334C10.6667 16.5 11.5001 17.3334 13.1667 17.3334ZM3.16675 17.3334H4.83341C6.50008 17.3334 7.33341 16.5 7.33341 14.8334V13.1667C7.33341 11.5 6.50008 10.6667 4.83341 10.6667H3.16675C1.50008 10.6667 0.666748 11.5 0.666748 13.1667V14.8334C0.666748 16.5 1.50008 17.3334 3.16675 17.3334Z" stroke-opacity="0.6" stroke-miterlimit="10" stroke-linecap="round" stroke-linejoin="round"/>
</svg>
