<svg width="24" height="24" viewBox="0 0 24 24" fill="none" xmlns="http://www.w3.org/2000/svg">
<path d="M18.7889 4.22001C15.8289 1.27001 11.0289 1.27001 8.08893 4.22001C6.01893 6.27001 5.39893 9.22001 6.19893 11.82L1.49893 16.52C1.16893 16.86 0.938926 17.53 1.00893 18.01L1.30893 20.19C1.41893 20.91 2.08893 21.59 2.80893 21.69L4.98893 21.99C5.46893 22.06 6.13893 21.84 6.47893 21.49L7.29893 20.67C7.49893 20.48 7.49893 20.16 7.29893 19.96L5.35893 18.02C5.21945 17.8789 5.14122 17.6884 5.14122 17.49C5.14122 17.2916 5.21945 17.1011 5.35893 16.96C5.64893 16.67 6.12893 16.67 6.41893 16.96L8.36893 18.91C8.55893 19.1 8.87893 19.1 9.06893 18.91L11.1889 16.8C13.7789 17.61 16.7289 16.98 18.7889 14.93C21.7389 11.98 21.7389 7.17001 18.7889 4.22001ZM13.4989 12C12.8359 12 12.2 11.7366 11.7312 11.2678C11.2623 10.7989 10.9989 10.163 10.9989 9.50001C10.9989 8.83697 11.2623 8.20108 11.7312 7.73224C12.2 7.2634 12.8359 7.00001 13.4989 7.00001C14.162 7.00001 14.7979 7.2634 15.2667 7.73224C15.7355 8.20108 15.9989 8.83697 15.9989 9.50001C15.9989 10.163 15.7355 10.7989 15.2667 11.2678C14.7979 11.7366 14.162 12 13.4989 12Z" fill="#FEE6F2" fill-opacity="0.6"/>
</svg>
