<svg width="171" height="129" viewBox="0 0 171 129" fill="none"
  xmlns="http://www.w3.org/2000/svg">
  <mask id="path-1-inside-1_72_885" fill="white">
    <path fill-rule="evenodd" clip-rule="evenodd" d="M167.78 58.9777C171.563 61.3243 171.563 66.8288 167.78 69.1754L74.1626 127.242C70.1656 129.722 65 126.847 65 122.144V6.00955C65 1.30613 70.1656 -1.56844 74.1626 0.910735L167.78 58.9777ZM54 4.57656H6C4.89543 4.57656 4 5.47199 4 6.57656V54.5766C4 55.6811 4.89543 56.5766 6 56.5766H54C55.1046 56.5766 56 55.6811 56 54.5766V6.57656C56 5.47199 55.1046 4.57656 54 4.57656ZM6 0.576555C2.68629 0.576555 0 3.26285 0 6.57656V54.5766C0 57.8903 2.68629 60.5766 6 60.5766H54C57.3137 60.5766 60 57.8903 60 54.5766V6.57656C60 3.26285 57.3137 0.576555 54 0.576555H6ZM0 71.5766C0 68.2628 2.68629 65.5766 6 65.5766H54C57.3137 65.5766 60 68.2628 60 71.5766V119.577C60 122.89 57.3137 125.577 54 125.577H6C2.68629 125.577 0 122.89 0 119.577V71.5766Z"/>
  </mask>
  <path fill-rule="evenodd" clip-rule="evenodd" d="M167.78 58.9777C171.563 61.3243 171.563 66.8288 167.78 69.1754L74.1626 127.242C70.1656 129.722 65 126.847 65 122.144V6.00955C65 1.30613 70.1656 -1.56844 74.1626 0.910735L167.78 58.9777ZM54 4.57656H6C4.89543 4.57656 4 5.47199 4 6.57656V54.5766C4 55.6811 4.89543 56.5766 6 56.5766H54C55.1046 56.5766 56 55.6811 56 54.5766V6.57656C56 5.47199 55.1046 4.57656 54 4.57656ZM6 0.576555C2.68629 0.576555 0 3.26285 0 6.57656V54.5766C0 57.8903 2.68629 60.5766 6 60.5766H54C57.3137 60.5766 60 57.8903 60 54.5766V6.57656C60 3.26285 57.3137 0.576555 54 0.576555H6ZM0 71.5766C0 68.2628 2.68629 65.5766 6 65.5766H54C57.3137 65.5766 60 68.2628 60 71.5766V119.577C60 122.89 57.3137 125.577 54 125.577H6C2.68629 125.577 0 122.89 0 119.577V71.5766Z" fill="#F00878"/>
  <path d="M167.78 69.1754L165.671 65.7762L167.78 69.1754ZM167.78 58.9777L169.888 55.5785V55.5785L167.78 58.9777ZM74.1626 127.242L76.271 130.642L74.1626 127.242ZM74.1626 0.910735L72.0542 4.30995L74.1626 0.910735ZM169.888 72.5746C176.193 68.6636 176.193 59.4895 169.888 55.5785L165.671 62.3769C166.932 63.1591 166.932 64.994 165.671 65.7762L169.888 72.5746ZM76.271 130.642L169.888 72.5746L165.671 65.7762L72.0542 123.843L76.271 130.642ZM61 122.144C61 129.983 69.6094 134.774 76.271 130.642L72.0542 123.843C70.7219 124.67 69 123.711 69 122.144H61ZM61 6.00955V122.144H69V6.00955H61ZM76.271 -2.48848C69.6094 -6.62043 61 -1.82948 61 6.00955H69C69 4.44175 70.7219 3.48355 72.0542 4.30995L76.271 -2.48848ZM169.888 55.5785L76.271 -2.48848L72.0542 4.30995L165.671 62.3769L169.888 55.5785ZM6 8.57656H54V0.576555H6V8.57656ZM8 6.57656C8 7.68112 7.10457 8.57656 6 8.57656V0.576555C2.68629 0.576555 0 3.26285 0 6.57656H8ZM8 54.5766V6.57656H0V54.5766H8ZM6 52.5766C7.10457 52.5766 8 53.472 8 54.5766H0C0 57.8903 2.68629 60.5766 6 60.5766V52.5766ZM54 52.5766H6V60.5766H54V52.5766ZM52 54.5766C52 53.472 52.8954 52.5766 54 52.5766V60.5766C57.3137 60.5766 60 57.8903 60 54.5766H52ZM52 6.57656V54.5766H60V6.57656H52ZM54 8.57656C52.8954 8.57656 52 7.68113 52 6.57656H60C60 3.26285 57.3137 0.576555 54 0.576555V8.57656ZM4 6.57656C4 5.47199 4.89543 4.57656 6 4.57656V-3.42344C0.477151 -3.42344 -4 1.05371 -4 6.57656H4ZM4 54.5766V6.57656H-4V54.5766H4ZM6 56.5766C4.89543 56.5766 4 55.6811 4 54.5766H-4C-4 60.0994 0.477157 64.5766 6 64.5766V56.5766ZM54 56.5766H6V64.5766H54V56.5766ZM56 54.5766C56 55.6811 55.1046 56.5766 54 56.5766V64.5766C59.5229 64.5766 64 60.0994 64 54.5766H56ZM56 6.57656V54.5766H64V6.57656H56ZM54 4.57656C55.1046 4.57656 56 5.47199 56 6.57656H64C64 1.05371 59.5228 -3.42344 54 -3.42344V4.57656ZM6 4.57656H54V-3.42344H6V4.57656ZM6 61.5766C0.477151 61.5766 -4 66.0537 -4 71.5766H4C4 70.472 4.89543 69.5766 6 69.5766V61.5766ZM54 61.5766H6V69.5766H54V61.5766ZM64 71.5766C64 66.0537 59.5228 61.5766 54 61.5766V69.5766C55.1046 69.5766 56 70.472 56 71.5766H64ZM64 119.577V71.5766H56V119.577H64ZM54 129.577C59.5229 129.577 64 125.099 64 119.577H56C56 120.681 55.1046 121.577 54 121.577V129.577ZM6 129.577H54V121.577H6V129.577ZM-4 119.577C-4 125.099 0.477154 129.577 6 129.577V121.577C4.89543 121.577 4 120.681 4 119.577H-4ZM-4 71.5766V119.577H4V71.5766H-4Z" fill="#F00878" mask="url(#path-1-inside-1_72_885)"/>
</svg>
