<svg width="18" height="20" viewBox="0 0 18 20" fill="none" xmlns="http://www.w3.org/2000/svg">
  <path
    d="M15.8395 3.33434C15.8072 2.42536 15.2107 1.62029 14.3154 1.26058C13.8799 0.48861 13.018 0 12.0632 0C11.3094 0 10.5999 0.311716 10.1217 0.834407C9.82971 0.729366 9.51767 0.674837 9.20072 0.674837C8.60431 0.674837 8.03541 0.866702 7.58392 1.21161C7.1827 0.979087 6.71758 0.854206 6.23636 0.854206C5.00041 0.854206 3.9678 1.67397 3.74198 2.75594C3.6741 2.75087 3.6059 2.74832 3.53754 2.74832C2.13686 2.74832 0.997314 3.8012 0.997314 5.09533C0.997314 6.00857 1.56512 6.80107 2.39129 7.18886L3.74989 18.7359C3.78872 19.0816 4.05179 19.3707 4.41385 19.4651C4.49492 19.4863 6.37012 19.968 8.96674 19.9985C8.97765 19.9989 8.98832 20 8.99932 20C9.00678 20 9.01392 19.9991 9.02131 19.999C9.08829 19.9996 9.15568 20 9.2236 20C10.8329 20 12.3689 19.8209 13.7888 19.468C14.1617 19.3752 14.4321 19.0768 14.4653 18.7214L15.6007 7.40373C16.4313 7.01736 17.0028 6.22263 17.0028 5.30639C17.0028 4.50757 16.5552 3.76282 15.8395 3.33434ZM4.41471 8.20292C5.26964 8.27039 6.5512 8.33319 8.08068 8.36127L4.41471 8.20292ZM8.08072 18.2697C6.97039 18.2063 6.06409 18.0643 5.50971 17.9592L4.41471 8.20292C4.41471 8.20292 6.75438 8.36127 8.08068 8.36127C8.19855 8.36127 8.08068 9.34725 8.08077 14.181L8.08072 18.2697ZM12.6916 17.9688C11.8113 18.1479 10.8826 18.2553 9.91791 18.2901L9.91787 8.36687L13.6026 8.20969L12.6916 17.9688ZM13.6026 8.20969L9.91787 8.36687C10.0893 8.35421 9.75209 8.36687 9.91787 8.36687C11.2028 8.35117 12.4365 8.31019 13.6026 8.20969ZM15.281 6.16125C14.9055 6.28239 13.252 6.71911 8.92678 6.71911C6.34951 6.71911 4.75929 6.56758 3.82154 6.42001C3.82154 6.42001 3.77107 6.40902 3.74608 6.40788C3.57993 6.38078 3.43554 6.35396 3.31094 6.3284C2.74646 6.14234 2.34285 5.65706 2.34285 5.08909C2.34285 4.36094 3.0062 3.76858 3.82154 3.76858C3.98152 3.76858 4.13959 3.79163 4.29149 3.83711L4.93805 4.03068L4.9034 3.4225C4.90206 3.39966 4.90141 3.37666 4.90141 3.35353C4.90141 2.62542 5.56476 2.03303 6.3801 2.03303C6.75255 2.03303 7.10858 2.15734 7.38244 2.38305L7.7415 2.67894L8.05443 2.34402C8.33673 2.04196 8.75069 1.86871 9.19033 1.86871C9.46626 1.86871 9.7355 1.93716 9.96899 2.06666L10.3793 2.29423L10.6181 1.91935C10.881 1.50669 11.3738 1.25035 11.904 1.25035C12.5024 1.25035 13.0382 1.56909 13.2691 2.06236L13.3501 2.23565L13.5494 2.29561C14.1514 2.47677 14.5558 2.97958 14.5558 3.54694C14.5558 3.58828 14.5535 3.63109 14.5489 3.67421L14.5176 3.96406L14.812 4.08898C15.3255 4.30686 15.6573 4.77534 15.6573 5.28245C15.6572 5.61973 15.5148 5.92763 15.281 6.16125Z" />
</svg>